<?xml version="1.0" encoding="UTF-8"?>
<svg version="1.1" xmlns="http://www.w3.org/2000/svg" width="48" height="48">
<path d="M0 0 C0.83096191 -0.00630432 1.66192383 -0.01260864 2.51806641 -0.019104 C3.85877197 -0.01303131 3.85877197 -0.01303131 5.2265625 -0.00683594 C6.14743652 -0.00874939 7.06831055 -0.01066284 8.01708984 -0.01263428 C9.96386997 -0.01399514 11.91065919 -0.01030557 13.85742188 -0.00195312 C16.84005078 0.00874776 19.82207736 -0.00185176 22.8046875 -0.01464844 C24.69531383 -0.01332683 26.58593979 -0.0107644 28.4765625 -0.00683594 C29.81726807 -0.01290863 29.81726807 -0.01290863 31.18505859 -0.019104 C32.43150146 -0.00964752 32.43150146 -0.00964752 33.703125 0 C34.79874756 0.00238678 34.79874756 0.00238678 35.91650391 0.00482178 C37.8515625 0.25878906 37.8515625 0.25878906 40.8515625 2.25878906 C41.23974609 5.39160156 41.23974609 5.39160156 41.25 9.38378906 C41.25287018 10.08648926 41.25574036 10.78918945 41.25869751 11.51318359 C41.26073964 12.99935715 41.25519928 14.48555749 41.24267578 15.97167969 C41.22662242 18.25028415 41.24251749 20.52711496 41.26171875 22.80566406 C41.25973634 24.24837632 41.25589271 25.69108748 41.25 27.13378906 C41.24661621 28.45121094 41.24323242 29.76863281 41.23974609 31.12597656 C41.11164551 32.15980469 40.98354492 33.19363281 40.8515625 34.25878906 C37.78425809 36.30365867 37.15964033 36.51004821 33.703125 36.51757812 C32.87216309 36.52388245 32.04120117 36.53018677 31.18505859 36.53668213 C30.29125488 36.53263367 29.39745117 36.52858521 28.4765625 36.52441406 C27.55568848 36.52632751 26.63481445 36.52824097 25.68603516 36.5302124 C23.73925503 36.53157327 21.79246581 36.5278837 19.84570312 36.51953125 C16.86307422 36.50883036 13.88104764 36.51942989 10.8984375 36.53222656 C9.00781117 36.53090495 7.11718521 36.52834252 5.2265625 36.52441406 C3.88585693 36.53048676 3.88585693 36.53048676 2.51806641 36.53668213 C1.27162354 36.52722565 1.27162354 36.52722565 0 36.51757812 C-0.73041504 36.51598694 -1.46083008 36.51439575 -2.21337891 36.51275635 C-4.1484375 36.25878906 -4.1484375 36.25878906 -7.1484375 34.25878906 C-7.53662109 31.12597656 -7.53662109 31.12597656 -7.546875 27.13378906 C-7.54974518 26.43108887 -7.55261536 25.72838867 -7.55557251 25.00439453 C-7.55761464 23.51822097 -7.55207428 22.03202063 -7.53955078 20.54589844 C-7.52349742 18.26729398 -7.53939249 15.99046317 -7.55859375 13.71191406 C-7.55661134 12.2692018 -7.55276771 10.82649065 -7.546875 9.38378906 C-7.54349121 8.06636719 -7.54010742 6.74894531 -7.53662109 5.39160156 C-7.40852051 4.35777344 -7.28041992 3.32394531 -7.1484375 2.25878906 C-4.08113309 0.21391946 -3.45651533 0.00752991 0 0 Z " fill="#FDAA32" transform="translate(7.1484375,5.7412109375)"/>
<path d="M0 0 C0.83096191 -0.00630432 1.66192383 -0.01260864 2.51806641 -0.019104 C3.85877197 -0.01303131 3.85877197 -0.01303131 5.2265625 -0.00683594 C6.14743652 -0.00874939 7.06831055 -0.01066284 8.01708984 -0.01263428 C9.96386997 -0.01399514 11.91065919 -0.01030557 13.85742188 -0.00195312 C16.84005078 0.00874776 19.82207736 -0.00185176 22.8046875 -0.01464844 C24.69531383 -0.01332683 26.58593979 -0.0107644 28.4765625 -0.00683594 C29.81726807 -0.01290863 29.81726807 -0.01290863 31.18505859 -0.019104 C32.43150146 -0.00964752 32.43150146 -0.00964752 33.703125 0 C34.79874756 0.00238678 34.79874756 0.00238678 35.91650391 0.00482178 C37.8515625 0.25878906 37.8515625 0.25878906 40.8515625 2.25878906 C40.8515625 6.21878906 40.8515625 10.17878906 40.8515625 14.25878906 C25.0115625 14.25878906 9.1715625 14.25878906 -7.1484375 14.25878906 C-7.1484375 10.29878906 -7.1484375 6.33878906 -7.1484375 2.25878906 C-4.08113309 0.21391946 -3.45651533 0.00752991 0 0 Z " fill="#363633" transform="translate(7.1484375,5.7412109375)"/>
<path d="M0 0 C12.54 0 25.08 0 38 0 C38 2.97 38 5.94 38 9 C25.46 9 12.92 9 0 9 C0 6.03 0 3.06 0 0 Z " fill="#F1E1C8" transform="translate(5,25)"/>
<path d="M0 0 C0.83096191 -0.00630432 1.66192383 -0.01260864 2.51806641 -0.019104 C3.85877197 -0.01303131 3.85877197 -0.01303131 5.2265625 -0.00683594 C6.14743652 -0.00874939 7.06831055 -0.01066284 8.01708984 -0.01263428 C9.96386997 -0.01399514 11.91065919 -0.01030557 13.85742188 -0.00195312 C16.84005078 0.00874776 19.82207736 -0.00185176 22.8046875 -0.01464844 C24.69531383 -0.01332683 26.58593979 -0.0107644 28.4765625 -0.00683594 C29.81726807 -0.01290863 29.81726807 -0.01290863 31.18505859 -0.019104 C32.43150146 -0.00964752 32.43150146 -0.00964752 33.703125 0 C34.79874756 0.00238678 34.79874756 0.00238678 35.91650391 0.00482178 C37.8515625 0.25878906 37.8515625 0.25878906 40.8515625 2.25878906 C40.8515625 3.90878906 40.8515625 5.55878906 40.8515625 7.25878906 C25.0115625 7.25878906 9.1715625 7.25878906 -7.1484375 7.25878906 C-7.1484375 5.60878906 -7.1484375 3.95878906 -7.1484375 2.25878906 C-4.08113309 0.21391946 -3.45651533 0.00752991 0 0 Z " fill="#FFAB32" transform="translate(7.1484375,5.7412109375)"/>
<path d="M0 0 C0 0.66 0 1.32 0 2 C0.99 1.34 1.98 0.68 3 0 C5.4665842 -0.18973725 7.44365029 -0.17266025 9.8125 0.5625 C12.17106376 1.03421275 13.64680358 0.7795236 16 0.375 C18.98688228 -0.06523078 19.72621612 -0.14373654 22.5 1.3125 C24 3 24 3 24 5 C23.443125 4.91621094 22.88625 4.83242188 22.3125 4.74609375 C18.29105677 4.20944845 14.65376503 3.90841554 10.625 4.5 C7 5 7 5 4 4 C2.7934375 4.2784375 2.7934375 4.2784375 1.5625 4.5625 C-1 5 -1 5 -3.0625 3.9375 C-3.701875 3.628125 -4.34125 3.31875 -5 3 C-7.23470405 3.78309467 -7.23470405 3.78309467 -9 5 C-8.625 3.0625 -8.625 3.0625 -8 1 C-5.29120665 -0.35439668 -2.99066732 -0.06501451 0 0 Z " fill="#94A4AF" transform="translate(16,27)"/>
<path d="M0 0 C5.61 0 11.22 0 17 0 C17 2.31 17 4.62 17 7 C15.68 6.67 14.36 6.34 13 6 C13.66 6 14.32 6 15 6 C13.72156117 3.70992314 13.72156117 3.70992314 11 2 C7.27297245 1.94101107 3.67642697 2.41684262 0 3 C0 2.01 0 1.02 0 0 Z " fill="#F1F5F8" transform="translate(25,26)"/>
<path d="M0 0 C1.203125 2.05078125 1.203125 2.05078125 2 4 C1.1646875 3.87431641 1.1646875 3.87431641 0.3125 3.74609375 C-5.05791108 3.02943416 -9.65383432 3.12517289 -15 4 C-14.375 2.0625 -14.375 2.0625 -13 0 C-8.52973151 -1.35147652 -4.50933743 -1.12733436 0 0 Z " fill="#A2B0BA" transform="translate(38,28)"/>
<path d="M0 0 C1.98 0 3.96 0 6 0 C6.66 1.32 7.32 2.64 8 4 C3.545 3.01 3.545 3.01 -1 2 C-0.67 1.34 -0.34 0.68 0 0 Z " fill="#90A0AC" transform="translate(32,28)"/>
</svg>
